<svg width="277" height="80" viewBox="0 0 277 80" xmlns="http://www.w3.org/2000/svg"><title>SVG logo big color</title><g fill="none" fill-rule="evenodd"><g fill="#000"><path d="M27.206 9.509c.024.058.048.115.072.165.432.914 1.222 1.798 1.222 1.798l.015-.01.002.002s.113-.086.344-.216c.078-.044.169-.092.274-.145.25-.124.574-.267.977-.409.952-.335 2.22-.44 2.22-.44s-1.181-1.635-1.403-3.996c-.126-1.338-.074-2.04-.06-2.081-.08-.005-.159-.012-.24-.012a3.77 3.77 0 0 0-2.366.831l-.048.038a3.746 3.746 0 0 0-1.364 2.892c0 .324.046.637.123.937.062.191.146.437.232.646M33.82 9.834c.24.258.482.373.7.373h.056c.218 0 .46-.115.7-.373.53-.51 1.088-1.373 1.465-2.417.543-1.513.385-2.792-.25-3.398-.314-.282-.7-.47-1.126-.532a4.513 4.513 0 0 0-.42-.027 1.68 1.68 0 0 0 1.278-1.625c0-.93-.756-1.682-1.69-1.682-.933 0-1.689.753-1.689 1.682A1.68 1.68 0 0 0 34.12 3.46c-.142.005-.29.013-.389.027a2.146 2.146 0 0 0-1.126.533c-.634.606-.793 1.884-.25 3.397.377 1.044.935 1.907 1.465 2.417M49.943 20.964c.387.61.368 1.374.368 1.374.006.002.78.135 1.164.516 0 0 .06-.059.068-.07.524-.641 1.489-1.692 1.767-3.218.226-1.243.08-2.984-.184-3.54-.01-.02-.018-.05-.028-.068.25-.289.664-.958 1.808-.958.42 0 .793.114 1.097.258.502.24.81.557.81.557s-.985 1.748-1.502 2.58c-.264.426-.456.757-.987 1.922-.442.971-.561 1.615-.485 2.31.065.585.376 1.701.51 2.823.258 2.151-.168 3.201-.168 3.201l.026-.017-.01.025s2.562-1.683 4.181-5.444c-.006 0-.011-.003-.018-.004l.002-.004a2.773 2.773 0 0 1-.755-.243 3.86 3.86 0 0 1-.603-.391c-1.433-1.09-1.11-2.25-.644-2.797.133-.155.27-.306.413-.457.36-.383.75-.769 1.158-1.243.518-.6.705-1.2.771-1.73.023-.182.048-.365.048-.554 0-1.581-.77-2.658-1.752-3.198a3.255 3.255 0 0 0-1.029-.364c-1.098-.189-2.442.223-3.425.889-.374.253-.991.817-1.164 1.241-.215 1.067.105 1.337.43 2.44.006.021.02.038.027.06.673 2.452.327 3.638-1.894 4.104M38.948 18.775c.29.611.818 1.203.818 1.203l.006-.004.077.079s.29-.253 1.052-.548c.63-.243 1.435-.329 1.435-.329s-.79-1.094-.94-2.675c-.085-.915-.047-1.39-.038-1.397l-.018-.001.001-.007a2.032 2.032 0 0 0-1.2.191 3.847 3.847 0 0 0-.694.482c-.34.302-.569.64-.657 1.003-.14.386-.19.813-.107 1.254.007.038.145.494.265.749M42.455 17.155c.342.948.907 1.743 1.344 1.91a.514.514 0 0 0 .192.045c.452-.053 1.05-.96 1.34-2.07.27-1.039.087-1.908-.37-2.276a1.91 1.91 0 0 0-.726-.326c-.021-.005-.041-.013-.062-.02.374-.182.627-.592.606-1.061a1.12 1.12 0 0 0-.687-1 .98.98 0 0 0-.424-.077c-.577.026-1.023.546-.995 1.163.022.469.312.856.702 1.004a1.813 1.813 0 0 0-.753.408c-.425.406-.531 1.288-.167 2.3M45.541 19.091s1.347.01 2.692.534c.024.009.04.022.063.032.18-.228.441-.589.616-.959.12-.254.258-.71.265-.748a2.37 2.37 0 0 0-.107-1.255c-.088-.362-.316-.7-.657-1.003a3.863 3.863 0 0 0-.693-.481l-.01-.004-.007-.004a2.036 2.036 0 0 0-1.2-.191c.008.007.047.481-.04 1.397-.148 1.58-.938 2.674-.938 2.674l.02.002-.004.006M36.765 10.254s1.267.105 2.22.44c.402.142.726.285.976.41.105.052.196.1.274.144.23.13.345.216.345.216l.002-.003.014.01s.79-.883 1.222-1.797c.024-.05.048-.107.072-.165a9.17 9.17 0 0 0 .232-.646c.077-.3.123-.613.123-.937 0-1.163-.53-2.202-1.364-2.892l-.048-.038a3.77 3.77 0 0 0-2.366-.831c-.081 0-.16.007-.24.012.014.04.067.743-.06 2.08-.222 2.362-1.402 3.997-1.402 3.997"/><path d="M37.602 13.885s.147.737.236 1.067a.504.504 0 0 1 .092.008c.563-.225 1.668-.554 1.668-.922v-1.176c0-.213-.216-.413-.598-.588-.779-.362-2.24-.613-3.9-.644l-.965-.003c-1.714.019-3.252.274-4.054.647-.382.175-.605.375-.605.588v1.176c0 .368 1.116.697 1.68.922 0-.004.09-.009.095-.008.09-.33.24-1.067.24-1.067s-.12-.048-.143-.097c-.07-.148.056-.233.265-.35.207-.113.55-.18.842-.191.177.645.202 1.658.164 2.527-.076 1.743-.408 3.932-1.445 5.421.395.381.83.876 1.276 1.51 1.076-2.054 1.245-4.301 1.335-6.617.04-1.02-.001-2.213 0-3.029.1-.001.434-.041.766-.041.33 0 .66.04.76.041.001.816-.04 2.01 0 3.03.091 2.356.26 4.643 1.39 6.728.409-.596.81-1.075 1.182-1.453l.077-.109c-1.07-1.49-1.406-3.715-1.483-5.481-.038-.87-.013-1.882.164-2.527.292.01.634.078.842.192.208.116.333.201.264.349-.023.049-.145.097-.145.097M52.11 30.344c-.006-.002-.01-.007-.016-.008-.016-.003-.032-.007-.049-.006l-.027.002-.177.018c-.616.038-1.214-.008-1.709-.2-.28-.092-.521-.25-.756-.415a56.437 56.437 0 0 1-.793-.7c-.454-.422-1.31-1.042-2.197-1.129-.999-.099-1.636.265-2.352.546a.197.197 0 0 0-.124.168.193.193 0 0 0 .117.188.193.193 0 0 0 .083.026c.708.05 1.383.17 2.024.358.475.143.946.295 1.32.56.49.346.913.788 1.195.965.366.231.69.454 1.11.538.44.074.9.043 1.33-.068l.056-.017c.115-.028.224-.071.334-.112.15-.06.295-.126.43-.205l.016-.01c.088-.051.18-.094.263-.155l.008-.004a.19.19 0 0 0-.085-.34"/><path d="M49.366 23.776c.045.141.196.29.365.388.534.309.724.762-.075.856-.582.068-1.19-.318-3.341.27-1.262.345-2.75 1.614-3.266 2.197-.16.182-.325.39-.478.612-.5.717-.494 1.683.045 2.371.322.41.68.676.785.746 1.89 1.274 3.663.219 3.856.027.155-.154.164-.215.134-.255-.003-.005-.009-.004-.012-.008a.018.018 0 0 1-.004.002v-.002c-.003-.005-.6.315-1.438.315-.475 0-.962-.083-1.365-.263-.296-.134-.98-.498-1.382-1.14a1.137 1.137 0 0 1 .109-1.331 6.28 6.28 0 0 1 1.062-1c.81-.594 1.741-.952 2.821-.968.026 0 .052-.004.078-.004.543 0 1.063.094 1.553.254a5.007 5.007 0 0 1 2.465 1.776l.003-.006.013.014c.177-.299.376-.747.545-1.376.03-.11.059-.223.086-.345.24-1.054.17-3.5-2.167-3.5-.042 0-.086.02-.129.03-.249.066-.308.199-.263.34M10.96 18.076c.41.474.799.86 1.16 1.243.142.151.279.302.412.457.466.546.79 1.706-.644 2.797-.2.152-.39.283-.603.39a2.765 2.765 0 0 1-.755.244l.002.004-.018.004c1.619 3.76 4.18 5.444 4.18 5.444l-.009-.025.026.017s-.426-1.05-.168-3.201c.134-1.122.446-2.238.51-2.822.076-.696-.043-1.34-.485-2.31-.53-1.166-.723-1.497-.987-1.923-.516-.832-1.502-2.58-1.502-2.58s.308-.316.81-.557A2.572 2.572 0 0 1 13.987 15c1.144 0 1.557.67 1.806.958-.01.017-.017.047-.027.067-.264.557-.41 2.298-.183 3.54.277 1.527 1.242 2.578 1.766 3.22l.068.07c.383-.382 1.158-.515 1.164-.517 0 0-.02-.763.368-1.374-2.221-.466-2.567-1.652-1.893-4.103.006-.023.02-.04.026-.062.325-1.102.645-1.372.43-2.439-.173-.424-.79-.988-1.164-1.241-.982-.666-2.327-1.078-3.425-.889a3.25 3.25 0 0 0-1.029.364c-.982.54-1.752 1.617-1.752 3.198 0 .19.025.372.048.554.065.53.253 1.13.77 1.73M26.556 19.176s.805.086 1.435.329c.762.295 1.052.548 1.052.548l.077-.08a.567.567 0 0 0 .006.005s.53-.592.818-1.203c.12-.255.258-.71.265-.749a2.368 2.368 0 0 0-.107-1.254c-.088-.362-.317-.701-.657-1.003a3.844 3.844 0 0 0-.693-.482 2.034 2.034 0 0 0-1.201-.19v.006l-.017.001c.009.008.047.482-.039 1.397-.148 1.58-.939 2.675-.939 2.675M24.9 19.11h.001c.06 0 .125-.017.192-.045.437-.167 1.002-.962 1.345-1.91.363-1.012.257-1.894-.168-2.3a1.811 1.811 0 0 0-.753-.408c.39-.148.68-.535.702-1.004.028-.617-.418-1.137-.995-1.163a.979.979 0 0 0-.424.077 1.12 1.12 0 0 0-.686 1c-.022.469.23.879.605 1.062-.02.006-.04.014-.062.019a1.923 1.923 0 0 0-.726.326c-.457.368-.641 1.237-.37 2.276.29 1.11.888 2.017 1.34 2.07M19.98 18.698c.175.37.436.73.616.96.023-.011.04-.024.063-.033a8.534 8.534 0 0 1 2.692-.534l-.004-.006.02-.002s-.79-1.094-.938-2.674c-.086-.916-.048-1.39-.04-1.397a2.036 2.036 0 0 0-1.2.19l-.007.005-.01.004a3.86 3.86 0 0 0-.693.48c-.34.303-.569.642-.657 1.004a2.37 2.37 0 0 0-.107 1.255c.007.038.145.494.265.748M24.783 28.834a.194.194 0 0 0 .082-.026.193.193 0 0 0 .117-.188.198.198 0 0 0-.123-.168c-.717-.28-1.354-.645-2.353-.546-.886.087-1.743.707-2.197 1.13a54.79 54.79 0 0 1-.793.7c-.235.165-.476.322-.756.414-.495.192-1.093.238-1.709.2l-.176-.018-.028-.002c-.017-.001-.033.003-.05.006-.005 0-.009.006-.014.008h-.001a.189.189 0 0 0-.16.169.191.191 0 0 0 .074.17l.008.005c.082.061.175.104.263.155l.017.01c.135.079.28.146.43.205.11.041.218.084.333.112l.057.017c.43.111.889.142 1.33.068.42-.084.743-.307 1.109-.538.282-.177.705-.619 1.196-.966.372-.264.844-.416 1.32-.559a9.617 9.617 0 0 1 2.024-.358"/><path d="M16.967 26.906c.027.122.057.234.087.345.168.629.367 1.077.544 1.376l.012-.014.004.006a5.004 5.004 0 0 1 2.466-1.776c.49-.16 1.009-.254 1.552-.254.026 0 .052.003.078.004 1.08.016 2.01.374 2.821.968.36.264.745.621 1.062 1 .316.377.37.914.11 1.33-.403.643-1.087 1.007-1.383 1.14-.403.181-.89.264-1.365.264-.838 0-1.434-.32-1.438-.315v.002l-.003-.002c-.004.004-.01.003-.013.008-.03.04-.02.1.134.255.193.192 1.967 1.247 3.856-.027a3.77 3.77 0 0 0 .785-.746c.54-.688.545-1.654.045-2.371a6.728 6.728 0 0 0-.478-.612c-.516-.583-2.003-1.852-3.266-2.197-2.152-.588-2.758-.202-3.34-.27-.8-.094-.61-.547-.076-.856.17-.098.32-.247.365-.388.045-.141-.014-.274-.263-.34-.043-.01-.086-.03-.13-.03-2.336 0-2.406 2.446-2.166 3.5M45.396 62.789l.004.025h.014c-.007-.009-.01-.017-.018-.025M35.773 39.074c.079.154.384.4.45.872.008.05 1.18-1.237 1.18-1.237v-1.237l-1.251.525-.38 1.077M28.14 71.536a15.95 15.95 0 0 0 1.63-.533c.27-.105.542-.223.812-.36.272-.137.541-.293.803-.477.258-.18.497-.407.7-.663a2.15 2.15 0 0 0 .262-.417c.035-.08.074-.161.1-.235l.05-.203.003-.008a.27.27 0 1 0-.366-.32.273.273 0 0 0-.128.083 1.89 1.89 0 0 1-.552.444 3.643 3.643 0 0 1-.628.247c-.456.132-.959.2-1.472.266-.507.065-1.058.121-1.561.17-.505.046-1.02.071-1.541.09l-1.617.052c-.561.03-1.146.059-1.817.213a4.11 4.11 0 0 0-.811.27c-.095.044-.19.093-.286.152-.367.228-.734.598-.914 1.029a2.02 2.02 0 0 0-.137 1.219c.085.364.233.678.496.951a.355.355 0 0 0 .394.078.955.955 0 0 0 .16-.116c.466-.748 1.463-1.15 1.657-1.196.805-.187 1.956-.238 3.064-.4.564-.082 1.131-.187 1.7-.336M23.07 68.438a.27.27 0 0 0 .422.24l.008-.005c.003-.002.006-.001.006-.001l.088-.059c.128-.086.258-.158.388-.217.397-.18.8-.246 1.194-.254.544-.016 1.095.05 1.73.162a8.764 8.764 0 0 0 2.207.118c.38-.028.764-.1 1.154-.206.195-.065.394-.13.594-.235l.004-.003.013-.005c.185-.105.444-.238.574-.522a.22.22 0 0 0-.161-.308s-.761-.142-1.071-.23l-.967-.248a27.85 27.85 0 0 0-2.005-.422c-.754-.129-1.65-.123-2.486.2-.105.041-.21.088-.312.142-.711.363-1.323 1.02-1.38 1.853M24.162 65.775c.034-.01.479-.168.689-.237l-.006-.002c.008-.003-2.614-.945-1.126-2.627l.006-.065c-.005.006-.008-.012-.012-.006a1.443 1.443 0 0 0-1.345.54c-.713.88.264 1.834.29 1.852-.146-.01-.496-.063-.642-.078-.634-.432-1.684-1.495-.177-3.744a1.398 1.398 0 0 0-.746.11c-.118.038-.23.085-.338.138-.741.36-1.247 1.058-1.247 1.868 0 .33.09.64.24.919.108.203.254.385.425.545-.112-.01-.592-.039-.706-.073-.691-.79-1.454-2.269.018-4a1.396 1.396 0 0 0-.746.11 2.327 2.327 0 0 0-.373.174c-.814.464-1.212 1.35-1.212 2.082 0 .33.12.87.24 1.162.967 2.355 5.533 1.641 6.768 1.332M47.383 70.307a2.863 2.863 0 0 0-.286-.152 4.11 4.11 0 0 0-.812-.27c-.67-.154-1.255-.183-1.817-.213l-1.616-.052a28.347 28.347 0 0 1-1.54-.09 54.432 54.432 0 0 1-1.562-.17c-.514-.065-1.016-.134-1.472-.266a3.663 3.663 0 0 1-.629-.247 1.886 1.886 0 0 1-.552-.444.274.274 0 0 0-.128-.083.271.271 0 0 0-.164-.013.275.275 0 0 0-.202.333l.003.008.05.203c.026.074.065.156.1.235.075.15.158.29.262.417.204.256.443.483.7.663.263.184.532.34.804.478.27.136.541.254.812.359.548.21 1.063.383 1.63.533.568.149 1.135.254 1.698.336 1.109.162 2.26.213 3.064.4.195.046 1.192.448 1.657 1.196 0 0 .115.1.16.116.132.056.29.031.395-.078.262-.273.411-.587.496-.951.073-.362.051-.79-.137-1.22-.18-.43-.547-.8-.914-1.028M38.226 67.973l.01.004.005.003c.202.106.4.17.595.236.39.105.775.178 1.155.206.75.06 1.522.005 2.207-.118.635-.113 1.186-.178 1.73-.162.395.008.796.073 1.194.254.13.06.26.13.388.217l.086.058h.005l.011.008c.048.032.107.05.17.045a.269.269 0 0 0 .25-.286c-.055-.834-.667-1.49-1.378-1.853a3.082 3.082 0 0 0-.312-.141c-.836-.324-1.732-.33-2.486-.2-.71.119-1.342.26-2.005.42l-.967.248c-.31.089-1.07.231-1.07.231a.22.22 0 0 0-.161.308c.129.284.388.417.573.522M50.737 61.2a2.314 2.314 0 0 0-.372-.174 1.395 1.395 0 0 0-.746-.11c1.472 1.73.709 3.21.018 4-.114.033-.594.063-.706.072.17-.16.316-.342.425-.545.15-.28.24-.588.24-.919 0-.81-.506-1.508-1.248-1.868a2.53 2.53 0 0 0-.337-.138 1.4 1.4 0 0 0-.746-.11c1.507 2.25.456 3.312-.177 3.744-.146.015-.496.068-.643.078.027-.018 1.003-.972.291-1.851a1.444 1.444 0 0 0-1.346-.54c-.003-.007-.007.011-.012.005l.007.065c1.488 1.682-1.134 2.624-1.126 2.627l-.006.002c.21.07.654.228.69.237 1.234.31 5.8 1.023 6.767-1.332.12-.293.24-.832.24-1.162 0-.732-.398-1.618-1.213-2.082M38.808 54.295c-.025-.034-.105-.052-.105-.052a.162.162 0 0 0-.109.015 1.82 1.82 0 0 0-.746.883c-.058.156-.105.313-.07.48.038.168.12.342.353.534.052.042.252.116.393.07.287-.093.43-.221.528-.363.095-.142.11-.305.115-.47a1.815 1.815 0 0 0-.36-1.097"/><path d="M39.19 45.024a.208.208 0 0 1-.012-.013l-.074.048a3.964 3.964 0 0 0-.96.607c-1.27 1.07-2.365 3.071-2.844 5.473-.457 2.296-.243 4.429.455 5.849.464.945 1.14 1.577 1.983 1.72.828.139 1.688-.216 2.476-.924 1.216-1.094 2.256-3.037 2.719-5.359.472-2.372.23-4.574-.523-5.99-.46-.869-1.114-1.443-1.915-1.578-.43-.073-.871-.008-1.306.167zm-2.707 6.229c.029-.163.134-.632.168-.79.007.007.106.25.352.419.287.196.466.205.61.223 0 0-.21-.298-.26-.679-.065-.485.161-.874.161-.874.12.194.708 1.614.936 2.084a3.59 3.59 0 0 0-.105.4c-.016.076-.024.151-.035.227-.006.043-.016.085-.02.128-.037.033-1.638 1.973-2.02 2.356-.22-1.318.042-2.524.213-3.494zm1.56 6.244c-.544-.071-.844-.382-1.022-.589-.498-.578-.555-1.13-.556-1.135l1.932-2.344c.104.292.317.393.374.401l.01.005c.179.035.368-.07.541-.265.049.12 1.17 2.18 1.215 2.213-.7 1.143-1.77 1.809-2.493 1.714zm3.78-5.02c-.081.458-.162.785-.294 1.2a10.12 10.12 0 0 1-.418 1.07c-.265-.351-.772-1.196-1.3-2.158a3.72 3.72 0 0 0 .062-.254c.035-.174.052-.342.06-.504.542-.53 1.057-1.152 1.6-1.762 0 0 .25.244.16.679-.083.405-.457.66-.457.66.35.01.494.028.807-.107-.038.317-.163.85-.22 1.177zm-.719-5.907c.095.086.182.187.266.298l.08.13.096.19c.174.363.287.742.372 1.185a.714.714 0 0 0-.238-.038c-1.06-.027-1.647.575-1.829 1.516 0 0 .339-.258.626-.33.253-.062.61-.016.61-.016-.402.485-.83.952-1.275 1.409-.087-.209-.215-.347-.376-.38-.173-.033-.356.065-.526.249-.178-.4-.588-1.4-.671-1.635 0 0 .307-.029.564.088.287.131.568.494.568.494.045-.23 0-.678-.081-.928-.165-.512-.548-.836-1.172-.915a1.357 1.357 0 0 0-.365.01c.479-.739 1.025-1.28 1.582-1.547-.154 1.161 1.443 1.399 1.77.22z"/><path d="M68.798 39.826a.777.777 0 0 0-.39-.47.786.786 0 0 0-.603-.064l-.034.01c-.905.269-1.854.55-2.785.765-.465.115-.93.225-1.393.326-.462.098-.918.177-1.42.243-.974.13-1.954.238-2.93.322-.628.052-1.27.095-1.895.123a27.278 27.278 0 0 0 1.075-.306 35.024 35.024 0 0 0 1.559-.529 51.243 51.243 0 0 0 3.015-1.213c.993-.423 2.034-.903 2.955-1.496.927-.609 1.798-1.244 2.612-2.035a.78.78 0 0 0-.212-1.265.786.786 0 0 0-.745.021l-.032.019c-.859.494-1.768 1.001-2.675 1.434-.916.447-1.787.874-2.765 1.206-.971.338-1.961.654-2.946.928-.493.137-.987.265-1.477.376l-.328.069a16.5 16.5 0 0 0 .726-.327c.535-.26 1.048-.537 1.55-.823a43.768 43.768 0 0 0 2.9-1.83c.961-.645 1.919-1.347 2.753-2.147.833-.818 1.6-1.653 2.273-2.642a.78.78 0 0 0-.329-1.149.784.784 0 0 0-.865.126l-.03.026a35.963 35.963 0 0 1-2.44 2.051c-.847.65-1.673 1.281-2.6 1.81-.173.1-.35.194-.524.292a39.23 39.23 0 0 1-2.334 1.231c-.152.073-.304.14-.456.21-.287.13-.573.254-.859.37l.156-.105c.337-.237.654-.483.964-.732.171-.138.343-.275.51-.416.92-.78 1.778-1.603 2.6-2.438l.032-.03c.872-.884 1.688-1.795 2.38-2.8.683-1.016 1.294-2.038 1.772-3.202a.779.779 0 0 0-.273-.933l-.015-.006-.001-.001a.786.786 0 0 0-1.093.188l-.023.032c-.63.89-1.324 1.81-2.053 2.649-.217.254-.436.506-.657.757-.516.585-1.047 1.153-1.622 1.66-.289.255-.581.499-.873.744-.529.444-1.062.877-1.607 1.282.085-.109.17-.217.251-.327.45-.615.866-1.24 1.263-1.872.275-.437.543-.878.803-1.321.46-.766.879-1.55 1.241-2.357.163-.362.318-.727.454-1.098.435-1.21.787-2.41.972-3.718a.78.78 0 0 0-.514-.844h-.003c-.005-.002-.008-.006-.013-.007a.784.784 0 0 0-1 .474l-.013.038c-.33.928-.729 1.882-1.16 2.802-.068.147-.13.299-.2.443-.487.997-.995 1.978-1.588 2.9-.035.054-.067.111-.103.165-.445.65-.91 1.282-1.384 1.897-1.465 1.625-3.934 3.251-5.27 3.898-.65.314-1.314.745-1.98 1.07l-.03.015c-.45.217-.836.564-1.063 1.006-.058.112-.104.23-.144.352-.07.215-.114.44-.114.68 0 .85.465 1.666 1.164 2.031.233.124.492.199.769.207.046.001.082-.006.122-.01.239-.026.372-.128.372-.128s-.187-.5.1-.724a1.051 1.051 0 0 1 .99-.094c.37.162.631.53.631.96 0 .533-.4.968-.916 1.036-.233.092-.683.106-.968.106a9.583 9.583 0 0 1-1.732-.164 9.345 9.345 0 0 1-2.194-.697c-.835-.383-2.367-1.501-2.344-1.565-1.578-1.458-2.575-3.46-2.66-5.676-.004-.102-.017-.202-.017-.305a8.183 8.183 0 0 1 .421-2.577 8.23 8.23 0 0 1 1.372-2.543c.059-.072.328-.368.677-.712l.062-.061.011-.011c.385-.377.85-.798 1.25-1.057h-.002l.004-.003a.89.89 0 0 1-.115-.099 3.06 3.06 0 0 1-.131-.134c-.726-.07-.984-.415-1.106-.706l-.011-.027-.028-.068c-.037-.11-.036-.438-.023-.485.055-.267.216-.531.354-.66.064-.074.132-.138.204-.193.219-.168.467-.26.73-.31.067-.015.133-.027.2-.034l.026-.004c.674-.07 1.34.22 1.607.907l.003.005c-.037.026-.427.098-.427.098h-.002c-.138-.295-.368-.419-.638-.399a.983.983 0 0 0-.28.068.55.55 0 0 0-.163.096c-.433.366-.052 1.294.548 1.359a.642.642 0 0 0 .295-.039l.011-.004c.263-.104 1.936-.504 2.943-.661.193-.03.364-.053.493-.062a.23.23 0 0 0 .013-.008l.002-.001c.174-.282.181-2.132-1.282-2.734-1.157-.477-2.162-.553-3.07-.555a10.639 10.639 0 0 0-2.34.252c-2.979.651-4.792 2.369-6.452 6.085-1.125 2.197-1.528 4.304-1.69 4.884l-.166.002c-.167-.622-.57-2.718-1.679-4.883-1.66-3.717-3.482-5.435-6.46-6.086a10.722 10.722 0 0 0-2.35-.251c-.908 0-1.913.078-3.07.554-1.464.603-1.456 2.453-1.282 2.734a.23.23 0 0 0 .012.007c.129.009.3.031.493.062 1.007.157 2.68.557 2.943.661l.01.004c.103.038.203.05.296.039.662-.072 1.056-1.19.39-1.452a.977.977 0 0 0-.282-.068c-.27-.02-.5.104-.638.399h-.002s-.411-.077-.43-.1l.003-.006c.267-.687.933-.978 1.607-.907.01 0 .017.003.026.004.067.007.133.02.2.033.35.068.676.21.938.506.137.13.298.394.353.661.013.046.015.375-.023.484-.007.02-.019.046-.028.069l-.01.027c-.122.291-.38.635-1.107.705a3.04 3.04 0 0 1-.131.135.916.916 0 0 1-.115.099c.425.277.927.737 1.325 1.131.349.345.619.641.677.714a8.218 8.218 0 0 1 1.372 2.543 8.176 8.176 0 0 1 .422 2.582c0 .103-.013.209-.017.31a8.187 8.187 0 0 1-.041.55c-.198.93-.614 2.437-1.385 3.712-.04.058-.079.116-.12.173h.013a5.675 5.675 0 0 1-1.035 1.227c.023.064-1.509 1.182-2.343 1.565a9.34 9.34 0 0 1-2.195.697c-.56.103-1.139.164-1.732.164-.285 0-.734-.014-.968-.106a1.048 1.048 0 0 1-.915-1.035c0-.43.26-.8.632-.962a1.056 1.056 0 0 1 .99.095c.285.224.098.724.098.724s.133.102.373.128c.04.004.075.011.122.01.276-.008.535-.083.768-.207.7-.365 1.164-1.18 1.164-2.032 0-.238-.043-.464-.114-.679a2.44 2.44 0 0 0-.144-.352 2.315 2.315 0 0 0-1.062-1.006l-.03-.015c-.666-.325-1.33-.756-1.98-1.07-1.336-.647-3.805-2.273-5.27-3.898a40.873 40.873 0 0 1-1.385-1.897c-.035-.054-.068-.11-.103-.165-.593-.922-1.101-1.903-1.588-2.9-.07-.144-.13-.296-.2-.443-.431-.92-.83-1.874-1.16-2.802l-.013-.038a.784.784 0 0 0-1-.474c-.004.001-.007.005-.012.007h-.004a.78.78 0 0 0-.514.844c.186 1.308.537 2.509.972 3.718.136.371.291.736.454 1.098.363.806.782 1.591 1.241 2.357.26.443.528.884.804 1.321.397.631.812 1.257 1.262 1.872.08.11.167.218.251.327a34.66 34.66 0 0 1-1.606-1.282c-.292-.245-.584-.489-.873-.744-.576-.507-1.106-1.075-1.623-1.66-.22-.25-.44-.503-.657-.757a34.143 34.143 0 0 1-2.052-2.649l-.024-.032a.786.786 0 0 0-1.092-.189l-.001.002-.015.006a.779.779 0 0 0-.274.933c.478 1.164 1.09 2.186 1.772 3.203.693 1.004 1.509 1.915 2.38 2.798l.032.031c.822.835 1.68 1.658 2.601 2.438.166.14.338.278.51.416.31.25.627.495.963.732l.156.105a21.84 21.84 0 0 1-.858-.37c-.152-.07-.305-.137-.457-.21a39.33 39.33 0 0 1-2.333-1.23c-.175-.099-.35-.193-.525-.293-.926-.529-1.752-1.16-2.6-1.81a35.879 35.879 0 0 1-2.44-2.05l-.03-.027a.784.784 0 0 0-.865-.126.78.78 0 0 0-.329 1.149c.674.99 1.44 1.824 2.274 2.642.834.8 1.791 1.502 2.752 2.146.938.64 1.897 1.256 2.9 1.83.502.287 1.015.564 1.55.824.236.113.479.222.727.327l-.328-.07c-.49-.11-.985-.238-1.477-.375a48.758 48.758 0 0 1-2.946-.928c-.979-.332-1.85-.759-2.766-1.206-.907-.433-1.816-.94-2.675-1.434l-.032-.019a.786.786 0 0 0-.744-.02.778.778 0 0 0-.213 1.264c.815.791 1.685 1.426 2.613 2.035.92.593 1.962 1.073 2.955 1.496.994.435 1.989.84 3.015 1.213.512.187 1.03.364 1.558.529.265.081.532.16.804.234l.271.072a50.056 50.056 0 0 1-1.894-.123 63.671 63.671 0 0 1-2.931-.322 18.368 18.368 0 0 1-1.42-.243 53.483 53.483 0 0 1-1.393-.326c-.93-.214-1.879-.496-2.785-.765l-.033-.01a.786.786 0 0 0-.603.064.779.779 0 0 0-.05 1.359c.916.562 1.851.976 2.833 1.356.968.367 2.045.604 3.035.808 1 .216 2 .412 3.011.581.91.15 1.794.281 2.746.379a87.89 87.89 0 0 1-1.74.191c-.932.091-1.867.168-2.803.228-.232.017-.463.025-.703.034l-.67.011-1.357-.025c-.91-.01-1.846-.074-2.748-.123l-.03-.001a.789.789 0 0 0-.448.11.78.78 0 0 0 .133 1.42c.96.328 1.908.523 2.891.683.491.071.987.117 1.488.138.25.012.502.018.754.02l.721.01c.965.021 1.93.026 2.893.014.668-.008.814-.009 1.484-.032l.088.29c-1.103.345-1.856.57-2.968.88-.866.242-1.686.403-2.54.578-.845.19-1.723.34-2.572.515l-.024.006a.784.784 0 0 0-.164.054.782.782 0 0 0 .238 1.503c.948.083 1.862.058 2.798 0 .93-.063 1.872-.271 2.759-.436.894-.165 2.208-.475 3.094-.66l.07.223c-.367.21-1.165.632-1.533.835-.369.204-.737.388-1.107.567-.365.178-.73.35-1.097.534H9.06l-.014.008c-.737.38-1.5.742-2.236 1.138l-.013.007a.783.783 0 0 0-.318 1.065.79.79 0 0 0 .842.397c.87-.165 1.696-.41 2.53-.677.829-.275 1.634-.66 2.422-1.002.21-.091 1.035-.445 1.243-.537l.144.654-.593.413-.91.785c-.6.532-1.161 1.114-1.692 1.735a.788.788 0 0 0 .088 1.115.797.797 0 0 0 .882.097l.011-.006.006-.002a16.87 16.87 0 0 0 2.076-1.267l.692-.404c.003.016.382 2.282.481 3.222.31 2.929.222 6.298.54 6.692.265.33.793.255 1.267.269-.032-.112-.048-.217-.072-.325 0-.011.003-.022 0-.033-.34-1.57.13-2.728.42-3.201.005-.008.002-.017.006-.025a.562.562 0 0 0 .033-.125c-.103-1.862-.354-4.867-.777-7.2-.674-3.719-1.805-9.676-2.126-11.363a.28.28 0 0 1 .08-.254.3.3 0 0 1 .274-.067c1.146.289 3.03.457 4.245.537.908.06 3.075.053 5.308-.63-.947 2.224-1.486 4.774-1.486 7.483 0 5.313 2.072 10.01 5.226 12.829-.373.059-.65.111-.728.139-.812.283-1.45.691-1.807.898-.009.005-.015.013-.023.019-.024.01-.05.022-.07.033-.124.068-.132.207-.102.344.083.385.298.864.507 1.147.047.063.093.124.171.128 2.95.146 5.12.37 6.858 1.467l.023.015c.048.03.092.066.14.098.82.643 1.151 1.977.481 2.925-.23.236-.47.464-.708.682a12.048 12.048 0 0 1-2.607 1.728 9.71 9.71 0 0 1-2.861.866c-.983.178-1.964.308-3.246.61l-.008.003a.31.31 0 0 0-.112.051.306.306 0 0 0-.06.467c.941 1.012 2.332 1.413 3.674 1.338 1.015-.078 2-.368 2.9-.797a9.392 9.392 0 0 0 3.678-3.11 1.58 1.58 0 0 0 .043-.067c-.002.012-.006.023-.009.035-.164.57-.71 2.067-1.147 2.567-.443.506-.847.991-1.314 1.372a5.987 5.987 0 0 1-1.538.916c-.589.243-1.265.4-2.06.57l-.008.002a.294.294 0 0 0-.108.048.29.29 0 0 0-.019.483c.708.5 1.6.734 2.525.68a4.626 4.626 0 0 0 2.586-1.04c.121-.1.218-.21.326-.32.204.404.42.808.576 1.21.206.482.37.963.635 1.443.06.108.192.158.244.149 0 .009.207-.041.267-.149.265-.48.453-.961.659-1.442.156-.403.372-.807.575-1.212.109.11.205.221.326.32a4.626 4.626 0 0 0 2.587 1.04c.925.055 1.817-.179 2.524-.679a.29.29 0 0 0-.019-.484.294.294 0 0 0-.108-.047l-.007-.002c-.796-.17-1.472-.327-2.06-.57a5.998 5.998 0 0 1-1.538-.916c-.467-.38-.872-.866-1.314-1.372-.437-.5-.984-1.997-1.148-2.567l-.009-.035.044.067a9.312 9.312 0 0 0 3.677 3.11c.901.429 1.885.719 2.9.797 1.342.075 2.733-.326 3.675-1.338a.306.306 0 0 0-.06-.467.312.312 0 0 0-.113-.051l-.008-.003c-1.282-.302-2.263-.432-3.245-.61a9.712 9.712 0 0 1-2.862-.866 12.048 12.048 0 0 1-2.607-1.728 17.938 17.938 0 0 1-.708-.682c-.67-.948-.339-2.282.483-2.925.047-.032.09-.068.138-.098l.023-.015c1.738-1.098 3.908-1.32 6.858-1.467.079-.004.124-.065.17-.128.21-.283.424-.762.508-1.147.029-.137.021-.276-.102-.344-.02-.011-.049-.022-.073-.033l-.025-.019c-.358-.207-1.001-.615-1.813-.898a6.831 6.831 0 0 0-.694-.131c3.16-2.818 5.238-7.519 5.238-12.837 0-2.709-.546-5.253-1.492-7.475 2.223.674 4.375.681 5.28.622 1.215-.08 3.098-.248 4.245-.537a.299.299 0 0 1 .274.067.28.28 0 0 1 .08.254c-.321 1.687-1.453 7.644-2.127 11.364-.423 2.332-.674 5.337-.776 7.2a.562.562 0 0 0 .032.124c.004.008.002.017.007.025.29.473.759 1.631.419 3.201-.003.011.001.022 0 .033-.024.108-.04.213-.071.325.473-.014 1.001.06 1.266-.269.318-.394.23-3.763.54-6.692.1-.94.478-3.206.48-3.222l.694.404a16.895 16.895 0 0 0 2.081 1.269l.011.006c.279.145.63.119.883-.097a.788.788 0 0 0 .087-1.115 17.691 17.691 0 0 0-1.69-1.735l-.912-.785-.592-.413.143-.654c.208.092 1.033.446 1.243.537.788.343 1.593.727 2.423 1.002.834.267 1.66.512 2.53.677a.79.79 0 0 0 .842-.397.783.783 0 0 0-.319-1.065l-.013-.007c-.735-.396-1.498-.759-2.236-1.138l-.014-.007-.002-.001c-.367-.183-.733-.356-1.098-.534a23.42 23.42 0 0 1-1.106-.567c-.368-.203-1.167-.626-1.535-.835l.07-.223c.887.185 2.2.495 3.096.66.886.165 1.828.373 2.758.436.937.058 1.85.083 2.798 0a.782.782 0 0 0 .238-1.503.784.784 0 0 0-.164-.054l-.024-.006c-.849-.174-1.726-.326-2.572-.515-.853-.175-1.674-.336-2.54-.579a88.57 88.57 0 0 1-2.968-.879l.09-.29c.669.023.814.024 1.482.032.964.012 1.928.007 2.893-.013l.722-.01c.251-.003.503-.01.754-.021.5-.021.997-.067 1.487-.138.983-.16 1.931-.355 2.89-.683a.78.78 0 1 0 .134-1.42.789.789 0 0 0-.447-.11l-.03.001c-.903.05-1.839.113-2.748.123l-1.358.025-.67-.011c-.24-.009-.47-.017-.703-.034-.935-.06-1.87-.137-2.803-.228a88.156 88.156 0 0 1-1.74-.191c.952-.098 1.837-.23 2.746-.379a65.339 65.339 0 0 0 3.012-.58c.99-.205 2.067-.442 3.034-.81.982-.38 1.917-.793 2.834-1.355a.782.782 0 0 0 .34-.889zM34.511 63.773l-.04-.001c-3.51-.018-6.612-2.365-8.488-5.936.874-1.468 2.681-4.672 2.681-4.672.17.657 1.178 5 1.178 5s-1.274.548-.63.94c.644.392 2.013.102 2.013.102s.348.312.724.575c.446.334.952.582 1.496.727.206.08.349.13.349.13s-.128.6.065.912c.076.122.148.228.393.228.07 0 .143-.016.214-.043.212-.078.416-.247.531-.366.295-.301.4-.517.62-.808-.008-.013.003-.034.023-.056.522-.141 1.073-.33 1.596-.982-1.273-.496-2.354-1.653-2.77-3.568a11.239 11.239 0 0 1-.246-2.262c-.009-.84.06-1.721.227-2.625l.019-.092c.599-3.138 2.557-5.53 3.123-5.736-.175-.402-.101-1.424-1.473-1.988-.296-.121-1.214-.176-1.3-.596.432-.292.761-.841.842-1.502.109-.886-.265-1.68-.865-1.965.143-.326.495-.773.495-.773l-.684-.73-.138.073-.747.398s.225.639.223.983c-.59.196-1.029.659-1.13 1.48-.049.403.173 1.028.634 1.487.248.247.298.457.144.61-.338.337-1.036.254-1.396.775-.226.329-.499 1.087-.499 1.087-.169.341-1.162 2.712-1.65 3.548-.122.21-.617.987-.617.987s-.216.148-.458.341a3.56 3.56 0 0 0-.54.51c-.376.48-.225 1.338.005 1.701l-2.89 5.258a8.312 8.312 0 0 1-.167-.372c-.813-1.975-1.276-4.24-1.276-6.647 0-7.367 4.335-13.41 9.784-13.84h1.263c.6.049 1.187.168 1.757.347.298.094.591.205.879.332 4.14 1.833 7.135 7.038 7.135 13.161 0 7.648-4.67 13.868-10.41 13.868zm-1.07-15.02s-2.027.763-2.992 1.152l1.974-3.407c.005.017.093.478.896.814-.025.121.122 1.44.122 1.44z"/><path d="M17.826 51.554h-.672v-.537h1.315v2.591h-.643v-2.054M19.379 54.298l1.406-2.71h-1.544v-.57h2.187v.446l-1.491 3.019-.558-.185M47.441 53.145c.33-.251 1.316-.842 1.316-1.194 0-.279-.198-.361-.481-.361-.24 0-.496.086-.615.137l-.156-.443c.128-.08.472-.198.798-.198.844 0 1.054.43 1.054.846 0 .554-.752 1.007-1.141 1.223h1.27v.494H47.44v-.504M51.188 53.647l-1.407.002v-.5l1.13-1.994h.887v1.994h.481v.498h-.48v.874h-.611v-.874zm0-.498v-1.353l-.767 1.353h.767z"/></g><g fill="#9F2D20"><path d="M98.137 14.748c0-1.491-.631-2.899-2.335-2.899-2.671 0-3.071 3.57-3.071 5.566 0 2.688.526 6.616 4.018 6.616 1.41 0 2.419-.546 3.492-1.386v1.974c-1.157.693-2.546.924-3.871.924-4.544 0-6.1-3.78-6.1-7.75 0-3.738 1.43-7.203 5.721-7.203 2.65 0 4.839 1.301 4.839 4.158h-2.693M107.499 25.312v-1.386h-.042a3.234 3.234 0 0 1-2.82 1.617c-1.43 0-2.734-.987-2.734-2.5 0-2.813 3.47-3.191 5.596-3.296v-.883c0-1.008.02-2.898-1.41-2.898-1.346 0-1.556 1.093-1.62 2.184h-2.23c.169-2.331 1.62-3.066 3.85-3.066 2.777 0 3.534 1.218 3.534 3.78v6.448H107.5zm0-4.683c-1.304.084-3.282.42-3.282 2.1 0 .735.4 1.491 1.22 1.491.273 0 .568-.084.8-.21.841-.441 1.262-1.281 1.262-2.205v-1.176zM118.585 25.312v-4.6h-3.766v4.6h-2.124v-9.997h2.124v4.2h3.766v-4.2h2.124v9.997h-2.124M123.823 15.315h2.125v4.263c1.22-1.407 2.377-2.835 3.555-4.263h2.083l-3.892 4.494c1.325.169 2.271.546 2.966 2.542l1.01 2.94h-2.336l-.756-2.247c-.569-1.66-1.074-2.142-2.378-2.142h-.252v4.41h-2.125v-9.997M137.181 16.49v8.822h-2.104v-8.821h-2.692v-1.176h7.573v1.176h-2.777M141.2 19.033h5.114v1.492H141.2v-1.492zM156.495 25.312V12.27h-5.112v13.043h-2.314V10.82h9.74v14.492h-2.314M163.438 19.18c0 2.372 1.114 5.25 3.89 5.25.653 0 1.305-.147 1.915-.42v.966c-1.01.42-1.83.567-2.923.567-3.472 0-5.007-2.415-5.007-5.67 0-2.857 1.198-4.789 4.27-4.789 2.714 0 3.85 1.533 3.85 4.095h-5.995zm2.06-3.214c-1.282 0-1.913 1.093-1.997 2.247h3.85c0-1.176-.527-2.247-1.852-2.247zM175.197 16.49v8.822h-2.104v-8.821h-2.692v-1.176h7.572v1.176h-2.776M180.771 19.18c0 2.372 1.115 5.25 3.892 5.25.653 0 1.305-.147 1.914-.42v.966c-1.01.42-1.83.567-2.923.567-3.471 0-5.007-2.415-5.007-5.67 0-2.857 1.2-4.789 4.27-4.789 2.714 0 3.85 1.533 3.85 4.095h-5.996zm2.062-3.214c-1.283 0-1.914 1.093-1.998 2.247h3.85c0-1.176-.527-2.247-1.852-2.247zM193.877 25.543c-1.24 0-2.04-.546-2.587-1.617h-.042v5.88h-2.125V15.316h2.125v1.638h.042c.484-1.113 1.325-1.869 2.587-1.869 3.092 0 3.787 2.667 3.787 5.23 0 2.499-.8 5.23-3.787 5.23zm-.547-9.115c-1.851 0-1.998 2.541-1.998 3.886 0 1.386.042 4.011 1.998 4.011 1.81 0 2.02-2.71 2.02-4.011 0-1.324-.19-3.886-2.02-3.886zM207.488 12.228l-3.366 1.302c-1.914.735-2.713 1.722-3.071 3.381h.063c.568-1.176 1.662-1.806 3.134-1.806 2.966 0 3.997 2.184 3.997 5.082 0 3.193-1.346 5.356-4.397 5.356-3.281 0-4.438-2.163-4.438-5.67 0-3.865.862-6.721 4.207-8.15 1.031-.42 2.04-.86 3.05-1.28l.82 1.785zm-3.64 12.37c1.936 0 2.083-2.436 2.083-3.927v-.778c0-1.47-.105-3.801-2.062-3.801-1.809 0-2.166 2.395-2.166 3.844v.818c0 1.47.21 3.844 2.145 3.844zM213.21 29.807h-1.704l1.472-4.39-3.849-10.102h2.209l2.63 7.141h.041l2.356-7.141h1.998l-5.153 14.492M224.738 25.543c-1.241 0-2.04-.546-2.588-1.617h-.042v5.88h-2.124V15.316h2.124v1.638h.042c.484-1.113 1.326-1.869 2.588-1.869 3.092 0 3.786 2.667 3.786 5.23 0 2.499-.8 5.23-3.786 5.23zm-.547-9.115c-1.852 0-1.999 2.541-1.999 3.886 0 1.386.042 4.011 1.999 4.011 1.809 0 2.02-2.71 2.02-4.011 0-1.324-.19-3.886-2.02-3.886zM236.56 15.315v1.155h-3.555v8.842h-2.103v-9.997h5.658M242.766 18.57c0-1.029-.063-2.604-1.452-2.604-1.535 0-1.85 2.1-1.85 3.235 0 2.205.904 5.23 3.596 5.23.61 0 1.22-.148 1.788-.38v.988c-.862.315-1.767.504-2.671.504-3.534 0-5.028-2.31-5.028-5.628 0-2.815 1.22-4.83 4.25-4.83 2.356 0 3.597 1.112 3.597 3.485h-2.23M246.847 15.315h2.125v4.263c1.22-1.407 2.377-2.835 3.555-4.263h2.083l-3.892 4.494c1.325.169 2.271.546 2.966 2.542l1.01 2.94h-2.336l-.756-2.247c-.569-1.66-1.074-2.142-2.378-2.142h-.252v4.41h-2.125v-9.997M256.63 25.312v-9.997h1.998v7.54l4.186-7.54h1.977v9.997h-1.977v-7.35l-4.165 7.35h-2.02M267.905 25.312v-9.997h1.998v7.54l4.187-7.54h1.977v9.997h-1.977v-7.35l-4.166 7.35h-2.019zm7.215-14.722c-.126 1.722-1.072 2.982-2.924 2.982-1.767 0-2.966-1.24-2.966-2.982h1.2c.189.881.778 1.449 1.724 1.449.968 0 1.536-.547 1.767-1.45h1.2zM96.517 37.554v1.155h-3.555v8.843h-2.103v-9.998h5.658M101.545 47.783c-3.26 0-4.417-2.269-4.417-5.23 0-2.962 1.156-5.23 4.417-5.23 3.26 0 4.439 2.248 4.439 5.23s-1.178 5.23-4.439 5.23zm0-9.577c-1.998 0-2.103 2.919-2.103 4.347 0 1.428.105 4.347 2.103 4.347 2.02 0 2.125-2.919 2.125-4.347 0-1.428-.105-4.347-2.125-4.347zM113.263 40.81c0-1.03-.063-2.604-1.452-2.604-1.535 0-1.85 2.1-1.85 3.234 0 2.205.903 5.23 3.596 5.23.61 0 1.22-.148 1.788-.379v.988c-.863.315-1.767.504-2.671.504-3.534 0-5.028-2.31-5.028-5.629 0-2.815 1.22-4.83 4.25-4.83 2.355 0 3.597 1.112 3.597 3.486h-2.23M119.931 52.046h-1.704l1.473-4.39-3.85-10.102h2.209l2.63 7.141h.041l2.356-7.14h1.999l-5.154 14.491M127.294 47.552c-.063.777-.148 1.554-.19 2.352h-1.682v-3.57h.968c.82-1.387 1.135-3.76 1.135-6.47v-2.31h6.942v8.78h1.367l-.294 3.57h-1.704v-2.352h-6.542zm2.335-8.822v1.114c0 2.331-.295 4.81-1.178 6.49h3.892V38.73h-2.714zM142.713 47.552v-1.387h-.041a3.235 3.235 0 0 1-2.82 1.618c-1.43 0-2.734-.988-2.734-2.5 0-2.814 3.471-3.192 5.595-3.297v-.882c0-1.008.021-2.898-1.409-2.898-1.346 0-1.556 1.092-1.62 2.184h-2.23c.169-2.332 1.62-3.067 3.85-3.067 2.777 0 3.534 1.219 3.534 3.78v6.449h-2.125zm0-4.684c-1.303.084-3.28.42-3.28 2.1 0 .736.399 1.491 1.219 1.491.273 0 .568-.084.8-.21.84-.44 1.261-1.28 1.261-2.205v-1.176zM152.664 47.783c-1.241 0-2.04-.547-2.588-1.618h-.042v5.881h-2.124V37.554h2.124v1.638h.042c.484-1.113 1.326-1.869 2.588-1.869 3.092 0 3.787 2.668 3.787 5.23 0 2.499-.8 5.23-3.787 5.23zm-.547-9.116c-1.851 0-1.998 2.542-1.998 3.886 0 1.386.042 4.011 1.998 4.011 1.81 0 2.02-2.709 2.02-4.011 0-1.323-.19-3.886-2.02-3.886zM163.708 40.81c0-1.03-.063-2.604-1.452-2.604-1.535 0-1.85 2.1-1.85 3.234 0 2.205.904 5.23 3.596 5.23.61 0 1.22-.148 1.789-.379v.988c-.863.315-1.768.504-2.672.504-3.534 0-5.028-2.31-5.028-5.629 0-2.815 1.22-4.83 4.25-4.83 2.356 0 3.597 1.112 3.597 3.486h-2.23M171.407 38.73v8.822h-2.103V38.73h-2.693v-1.176h7.573v1.176h-2.777M179.527 47.552h-3.618v-9.998h3.534c1.935 0 3.786.357 3.786 2.352 0 1.093-.694 2.038-2.103 2.353v.02c1.725.211 2.566.988 2.566 2.48 0 2.31-1.935 2.793-4.165 2.793zm-.63-8.906h-.885v3.15h.842c1.22 0 2.146-.314 2.146-1.595 0-1.24-.758-1.555-2.104-1.555zm.041 4.264h-.926v3.55h.884c1.536 0 2.567-.337 2.567-1.807 0-1.449-1.031-1.743-2.525-1.743zM187.353 41.419c0 2.373 1.115 5.25 3.892 5.25.652 0 1.304-.147 1.914-.42v.966c-1.01.42-1.83.568-2.924.568-3.47 0-5.006-2.416-5.006-5.671 0-2.856 1.199-4.789 4.27-4.789 2.714 0 3.85 1.534 3.85 4.096h-5.996zm2.062-3.213c-1.283 0-1.915 1.092-1.999 2.246h3.85c0-1.176-.526-2.246-1.851-2.246zM201.595 47.552v-4.6h-3.766v4.6h-2.124v-9.998h2.124v4.201h3.766v-4.2h2.124v9.997h-2.124M212.723 47.552v-4.6h-3.766v4.6h-2.124v-9.998h2.124v4.201h3.766v-4.2h2.125v9.997h-2.125M220.086 37.554v4.201h1.577c2.146.042 3.808.588 3.808 2.814 0 2.415-1.999 2.983-4.123 2.983h-3.387v-9.998h2.125zm.442 5.335h-.442v3.57h1.093c1.22-.084 2.062-.483 2.062-1.785 0-1.554-1.115-1.785-2.713-1.785zm6.12-5.335h2.126v9.998h-2.125v-9.998zM231.887 47.552v-9.998h1.999v7.54l4.186-7.54h1.977v9.998h-1.977V40.2l-4.166 7.35h-2.019zm7.216-14.723c-.127 1.722-1.073 2.982-2.924 2.982-1.768 0-2.967-1.239-2.967-2.982h1.2c.189.882.778 1.449 1.724 1.449.968 0 1.536-.546 1.767-1.45h1.2zM93.446 74.286h-1.704l1.473-4.39-3.85-10.102h2.209l2.63 7.14h.042l2.356-7.14H98.6l-5.154 14.492M106.11 69.791v-4.6h-3.766v4.6h-2.124v-9.997h2.124v4.2h3.766v-4.2h2.124v9.997h-2.124M111.348 69.791v-9.997h1.999v7.54l4.186-7.54h1.977v9.997h-1.977v-7.35l-4.165 7.35h-2.02M126.242 69.791h-3.618v-9.997h3.534c1.935 0 3.786.357 3.786 2.352 0 1.092-.694 2.037-2.103 2.353v.02c1.724.21 2.566.988 2.566 2.48 0 2.31-1.935 2.792-4.165 2.792zm-.631-8.905h-.884v3.15h.842c1.22 0 2.145-.315 2.145-1.596 0-1.24-.757-1.554-2.103-1.554zm.042 4.263h-.926v3.55h.884c1.535 0 2.567-.336 2.567-1.806 0-1.45-1.032-1.744-2.525-1.744zM134.067 63.658c0 2.374 1.115 5.251 3.892 5.251a4.69 4.69 0 0 0 1.914-.42v.966c-1.01.42-1.83.567-2.924.567-3.47 0-5.006-2.415-5.006-5.67 0-2.857 1.2-4.789 4.27-4.789 2.714 0 3.85 1.533 3.85 4.095h-5.996zm2.062-3.213c-1.283 0-1.914 1.092-1.998 2.247h3.85c0-1.176-.526-2.247-1.852-2.247zM147.174 70.022c-1.242 0-2.04-.546-2.588-1.617h-.042v5.881h-2.124V59.794h2.124v1.638h.042c.484-1.113 1.326-1.869 2.588-1.869 3.092 0 3.786 2.667 3.786 5.23 0 2.499-.8 5.23-3.786 5.23zm-.547-9.115c-1.852 0-1.998 2.542-1.998 3.886 0 1.385.041 4.011 1.998 4.011 1.809 0 2.019-2.71 2.019-4.011 0-1.324-.19-3.886-2.02-3.886zM158.218 63.05c0-1.03-.064-2.605-1.452-2.605-1.535 0-1.85 2.1-1.85 3.234 0 2.206.904 5.23 3.596 5.23.61 0 1.22-.147 1.789-.378v.987c-.863.315-1.768.504-2.672.504-3.534 0-5.028-2.31-5.028-5.628 0-2.815 1.22-4.83 4.25-4.83 2.355 0 3.596 1.112 3.596 3.485h-2.23M162.3 69.791v-9.997h1.997v7.54l4.186-7.54h1.978v9.997h-1.978v-7.35l-4.165 7.35H162.3M176.983 60.97v8.821h-2.104V60.97h-2.693v-1.176h7.573v1.176h-2.776M182.557 63.658c0 2.374 1.115 5.251 3.891 5.251.653 0 1.305-.147 1.915-.42v.966c-1.01.42-1.83.567-2.924.567-3.471 0-5.007-2.415-5.007-5.67 0-2.857 1.199-4.789 4.27-4.789 2.714 0 3.85 1.533 3.85 4.095h-5.995zm2.061-3.213c-1.283 0-1.914 1.092-1.998 2.247h3.85c0-1.176-.526-2.247-1.852-2.247zM194.317 60.97v8.821h-2.104V60.97h-2.692v-1.176h7.572v1.176h-2.776"/></g></g></svg>