<svg width="28" height="28" viewBox="0 0 28 28" xmlns="http://www.w3.org/2000/svg"><title>SVG logo smal + year</title><g fill="#FFF" fill-rule="evenodd"><path d="M6.459 3.89c0-1.223-.518-2.378-1.915-2.378-2.192 0-2.52 2.93-2.52 4.567 0 2.206.431 5.429 3.296 5.429 1.156 0 1.984-.448 2.864-1.138v1.62c-.949.569-2.088.758-3.175.758-3.727 0-5.004-3.102-5.004-6.359C.005 3.321 1.178.48 4.7.48c2.174 0 3.969 1.067 3.969 3.411h-2.21zM16.277 12.559V1.856h-4.193V12.56h-1.898V.668h7.99v11.89h-1.899zM23.956 11.973c1.588 0 1.708-2 1.708-3.223v-.637c0-1.207-.086-3.12-1.69-3.12-1.484 0-1.778 1.965-1.778 3.154v.672c0 1.207.172 3.154 1.76 3.154zm2.985-10.15l-2.76 1.068c-1.57.603-2.227 1.413-2.52 2.774h.052c.466-.965 1.363-1.482 2.571-1.482 2.433 0 3.278 1.793 3.278 4.17 0 2.62-1.104 4.395-3.606 4.395-2.692 0-3.641-1.775-3.641-4.653 0-3.171.708-5.515 3.451-6.686.845-.345 1.674-.707 2.502-1.052l.673 1.466zM16.657 15.694V16.9h-4.331v10.685h-1.881V15.694h6.212zM21.113 24.638a1927.664 1927.664 0 0 1-3.503-8.945h2.02c.862 2.258 1.673 4.533 2.553 6.773.915-2.257 1.863-4.515 2.778-6.773h1.536a3363.832 3363.832 0 0 1-5.056 11.892h-1.57l1.242-2.947zM3.46 26.768v.817h-.655v-1.598H5.97v.781H3.46zM6.812 24.883l-3.31-1.708v1.875h-.698v-2.656h.546l3.688 1.811-.226.678zM5.404 21.91c-.307-.402-1.028-1.6-1.459-1.6-.34 0-.441.24-.441.585 0 .29.106.602.168.748l-.542.189c-.096-.156-.241-.573-.241-.969 0-1.026.526-1.281 1.034-1.281.676 0 1.23.913 1.492 1.387v-1.544h.604v2.484h-.615zM5.408 17.359H3.757l1.651.931v-.931zm.609 0l.003 1.708h-.612l-2.434-1.373v-1.077h2.434v-.584h.609v.584h1.068v.742H6.017z"/></g></svg>