<?xml version="1.0" standalone="no"?>
<!DOCTYPE svg PUBLIC "-//W3C//DTD SVG 20010904//EN"
 "http://www.w3.org/TR/2001/REC-SVG-20010904/DTD/svg10.dtd">
<svg version="1.0" xmlns="http://www.w3.org/2000/svg"
 width="260.000000pt" height="260.000000pt" viewBox="0 0 260.000000 260.000000"
 preserveAspectRatio="xMidYMid meet">
<metadata>
Created by potrace 1.11, written by Peter Selinger 2001-2013
</metadata>
<g transform="translate(0.000000,260.000000) scale(0.100000,-0.100000)"
fill="#000000" stroke="none">
<path d="M135 2585 c-51 -18 -110 -81 -124 -131 -15 -56 -15 -2254 0 -2309 15
-52 82 -119 134 -134 56 -15 2254 -15 2310 0 52 15 119 82 134 134 15 56 15
2254 0 2310 -15 52 -82 119 -134 134 -28 8 -369 11 -1160 11 -939 -1 -1126 -3
-1160 -15z m1209 -171 c20 -19 20 -38 1 -57 -13 -13 -12 -17 10 -31 18 -12 25
-25 25 -48 0 -37 -36 -117 -57 -125 -20 -8 -61 35 -73 76 -15 54 -12 70 15 96
16 14 21 25 14 27 -16 5 -14 58 2 69 21 13 46 11 63 -7z m-134 -133 c0 -21 7
-58 15 -81 16 -46 13 -60 -13 -60 -9 0 -29 -6 -44 -14 -26 -14 -28 -13 -48 18
-31 52 -27 101 14 142 19 19 43 34 55 34 18 0 21 -6 21 -39z m253 28 c55 -28
73 -98 42 -159 -18 -34 -15 -34 -69 -18 -56 16 -59 19 -41 61 8 20 15 57 15
82 0 49 11 56 53 34z m-34 -218 c25 -14 28 -56 5 -65 -25 -9 -34 -7 -34 8 0
21 -21 31 -31 15 -13 -18 -2 -112 18 -171 14 -39 14 -49 4 -62 -8 -9 -17 -16
-21 -16 -14 0 -32 85 -37 177 -5 79 -9 93 -23 93 -15 0 -18 -15 -23 -97 -6
-92 -23 -173 -36 -173 -4 0 -12 9 -18 19 -10 16 -9 27 3 56 21 52 24 180 4
180 -8 0 -16 -10 -18 -22 -3 -19 -6 -21 -28 -11 -26 12 -33 51 -12 64 40 25
203 28 247 5z m-632 -21 c37 -22 49 -54 34 -94 -6 -15 -11 -45 -11 -67 0 -32
4 -41 25 -51 30 -14 33 -43 5 -58 -17 -9 -23 -6 -40 22 -24 40 -34 88 -27 132
6 39 -7 56 -42 56 -56 0 -57 -12 -12 -100 l43 -82 -12 -79 c-7 -43 -10 -88 -7
-100 5 -19 3 -19 -25 7 -17 16 -43 49 -58 74 l-29 44 29 18 c45 27 48 61 10
104 -17 20 -36 48 -41 63 -14 34 4 95 34 116 30 21 86 19 124 -5z m273 5 c6
-8 9 -23 5 -34 -3 -10 -1 -22 5 -26 26 -16 -5 -115 -36 -115 -8 0 -22 16 -30
36 -16 38 -12 84 7 84 6 0 8 9 4 20 -6 20 9 50 25 50 4 0 13 -7 20 -15z m518
-20 c2 -17 8 -34 13 -39 22 -23 0 -116 -27 -116 -33 0 -63 102 -35 119 6 4 9
15 5 24 -9 25 3 49 23 45 12 -2 19 -14 21 -33z m366 4 c39 -46 36 -96 -9 -149
-44 -52 -45 -81 -3 -113 l31 -25 -31 -49 c-17 -27 -42 -59 -55 -72 l-24 -22
-7 106 -7 106 39 73 c43 79 41 96 -7 96 -44 0 -51 -12 -50 -77 1 -47 -4 -71
-22 -102 -12 -23 -25 -41 -28 -41 -25 1 -53 60 -28 60 8 0 22 9 32 20 17 19
17 26 6 85 -15 77 -12 88 31 115 51 31 101 27 132 -11z m-984 -66 c1 -10 7
-35 14 -55 l14 -38 -37 -10 c-42 -12 -61 4 -61 52 0 47 69 96 70 51z m197 -5
c26 -25 30 -64 8 -94 -13 -19 -18 -20 -50 -10 -25 8 -33 15 -29 26 4 8 11 34
16 58 11 47 22 52 55 20z m336 -15 c3 -21 9 -47 12 -58 5 -16 -1 -23 -26 -32
-28 -11 -34 -10 -45 5 -22 29 -17 88 8 106 34 24 45 19 51 -21z m200 5 c13
-17 17 -34 13 -50 -11 -43 -19 -48 -59 -37 -34 9 -36 12 -27 35 6 14 10 39 10
55 0 25 4 30 21 27 12 -2 31 -15 42 -30z m-559 -132 c61 -36 100 -95 142 -216
17 -50 24 -60 29 -45 63 189 116 258 219 286 86 23 186 -6 186 -56 0 -30 -4
-32 -69 -41 -49 -6 -53 -5 -49 12 2 12 10 18 23 16 15 -3 17 -1 9 8 -6 6 -24
10 -40 8 -35 -4 -45 -35 -18 -55 17 -12 16 -15 -13 -46 -110 -116 -86 -289 50
-367 81 -46 177 -49 177 -4 0 19 -28 30 -43 15 -26 -26 -67 3 -67 48 0 33 16
48 89 87 111 59 208 175 256 307 13 35 23 47 38 47 18 0 19 -5 13 -47 -6 -49
-59 -172 -96 -223 -11 -15 -20 -32 -20 -36 0 -13 108 96 147 149 37 50 50 57
60 30 11 -28 -38 -104 -127 -197 -47 -49 -74 -83 -60 -76 50 26 136 84 183
123 50 41 76 41 63 -1 -10 -31 -112 -121 -191 -169 -39 -24 -67 -43 -64 -43
19 0 143 47 202 77 69 34 97 34 84 0 -9 -25 -97 -79 -192 -120 l-90 -38 65 6
c36 3 98 14 138 24 64 17 74 17 79 4 13 -33 -73 -73 -217 -99 -50 -9 -88 -19
-86 -22 3 -2 65 -5 138 -6 116 -2 133 -4 136 -19 5 -27 -42 -39 -178 -46 -125
-7 -125 -7 -80 -20 25 -8 79 -21 120 -31 62 -13 75 -20 75 -36 0 -26 -63 -30
-162 -10 -42 9 -78 14 -80 12 -3 -2 33 -24 79 -48 92 -48 109 -75 44 -71 -21
2 -63 14 -94 28 -30 14 -57 23 -60 20 -3 -3 15 -27 41 -53 26 -26 47 -53 47
-59 0 -25 -23 -24 -61 2 -23 14 -43 25 -45 23 -6 -6 -24 -178 -24 -229 0 -34
-4 -49 -16 -53 -9 -4 -19 -4 -22 -1 -3 2 -5 58 -6 122 0 93 7 156 33 293 18
96 34 184 37 195 5 19 0 20 -131 20 -74 0 -135 0 -135 0 0 0 7 -22 16 -50 23
-74 21 -234 -4 -312 -23 -73 -59 -138 -96 -172 l-26 -24 40 -18 c35 -16 39
-21 31 -41 -7 -20 -18 -24 -72 -30 -108 -11 -159 -39 -159 -89 0 -51 89 -106
208 -130 34 -6 65 -15 68 -20 8 -14 -59 -42 -102 -41 -46 0 -105 27 -146 65
-22 20 -28 22 -28 10 0 -25 84 -102 119 -109 37 -8 49 -23 30 -35 -22 -14 -77
-10 -110 7 -17 8 -32 14 -33 12 -1 -2 -8 -18 -15 -35 -8 -18 -17 -33 -20 -33
-4 0 -15 16 -24 35 -17 35 -17 35 -46 20 -37 -19 -91 -19 -116 -1 -18 13 -17
15 22 25 49 13 97 51 118 92 23 43 18 44 -24 6 -67 -61 -176 -78 -227 -36 -21
18 -9 24 78 43 187 41 249 158 106 201 -28 8 -71 15 -94 15 -33 0 -46 5 -54
19 -14 28 -14 29 23 47 17 9 34 18 36 20 2 2 -10 19 -28 39 -102 117 -137 348
-75 508 3 9 -31 12 -131 12 -74 0 -135 -1 -135 -2 0 -1 16 -89 36 -195 33
-180 42 -291 33 -393 -2 -22 -7 -39 -11 -37 -5 1 -12 2 -16 2 -5 0 -14 61 -20
137 -7 75 -14 138 -16 140 -2 3 -23 -7 -45 -22 -41 -25 -61 -26 -61 -2 0 6 21
33 47 59 26 26 44 50 41 53 -3 3 -30 -6 -61 -20 -32 -14 -75 -28 -97 -31 -35
-6 -40 -4 -40 12 0 14 24 31 86 63 47 24 83 45 81 47 -2 2 -38 -3 -81 -11 -97
-19 -150 -19 -165 -1 -17 20 3 32 89 49 41 9 93 23 115 31 40 15 40 15 -65 16
-130 2 -195 17 -195 45 0 17 6 20 40 18 22 -1 85 1 140 4 l100 6 -106 23
c-153 32 -219 64 -206 99 5 11 18 10 78 -6 39 -10 101 -21 138 -24 l66 -6 -61
24 c-133 54 -224 114 -224 148 0 26 10 24 98 -20 64 -32 169 -71 191 -71 3 0
-24 18 -62 41 -76 46 -183 140 -193 171 -14 45 14 40 81 -14 37 -30 95 -70
128 -88 l62 -34 -80 80 c-47 47 -94 106 -113 141 -29 55 -30 62 -16 74 14 11
19 9 37 -15 37 -51 101 -123 136 -152 l35 -29 -29 50 c-15 28 -34 61 -42 73
-22 36 -53 132 -53 164 0 20 5 28 18 28 12 0 25 -21 45 -70 58 -142 139 -231
274 -299 62 -31 80 -75 46 -113 -17 -19 -53 -25 -53 -8 0 6 -9 10 -20 10 -14
0 -20 -7 -20 -24 0 -19 7 -26 29 -31 31 -7 98 8 142 30 71 37 119 124 119 215
0 55 -41 143 -77 167 l-25 17 24 17 c19 15 21 22 12 36 -13 21 -62 29 -78 13
-8 -8 -4 -10 14 -8 17 2 25 -2 25 -12 0 -12 -12 -14 -54 -13 -67 3 -78 12 -61
52 16 39 54 52 139 46 43 -3 77 -12 105 -29z m-254 -86 c0 -5 -4 -10 -10 -10
-5 0 -10 -4 -10 -10 0 -5 18 -10 40 -10 52 0 107 -23 148 -62 40 -40 43 -78 6
-107 -26 -21 -98 -29 -107 -13 -3 4 13 7 34 7 26 1 46 8 60 22 68 68 -103 142
-180 78 -29 -25 -30 -25 -40 -6 -25 47 -1 121 40 121 10 0 19 -4 19 -10z m899
-24 c11 -23 11 -37 2 -67 l-12 -38 -36 24 c-47 33 -108 33 -154 2 -19 -12 -35
-32 -37 -44 -4 -29 44 -66 80 -61 15 3 25 1 22 -4 -8 -12 -77 -9 -95 5 -9 7
-21 22 -28 34 -28 53 60 133 155 141 56 5 62 9 42 31 -11 10 -7 12 17 9 21 -2
34 -11 44 -32z m-772 -97 l28 -10 -51 -18 c-28 -9 -63 -27 -79 -39 -32 -26
-63 -28 -91 -7 -18 14 -17 14 12 15 17 0 43 9 57 20 28 22 77 50 89 50 4 0 19
-5 35 -11z m646 0 c12 -7 35 -23 50 -35 16 -13 42 -24 58 -24 34 0 39 -15 7
-24 -36 -9 -43 -8 -84 21 -21 15 -59 32 -84 39 -43 12 -44 12 -20 22 33 14 47
14 73 1z m-786 -958 c-12 -32 2 -81 24 -81 8 0 8 5 -1 15 -16 19 -1 59 29 74
18 10 19 8 14 -29 -4 -25 -1 -46 7 -55 19 -23 28 -18 22 11 -3 16 1 30 9 35
22 14 28 11 22 -11 -3 -12 2 -29 11 -39 23 -25 11 -31 -64 -31 -82 0 -120 23
-120 72 0 33 24 68 46 68 9 0 10 -7 1 -29z m895 12 c18 -16 24 -68 10 -89 -15
-23 -53 -34 -115 -34 -72 0 -84 6 -61 31 9 10 14 27 11 39 -6 24 6 26 28 4 9
-10 13 -25 10 -38 -6 -20 -5 -20 15 3 11 13 19 29 17 35 -23 61 -16 71 22 35
18 -17 22 -28 17 -52 -5 -26 -4 -28 10 -16 12 10 15 25 11 56 -5 48 -2 51 25
26z m-603 -145 c92 -21 49 -50 -67 -46 -42 1 -85 -1 -94 -6 -27 -12 -22 10 7
39 28 29 72 32 154 13z m438 -10 c32 -30 31 -50 -3 -38 -14 6 -54 8 -88 4 -60
-6 -116 6 -116 24 0 12 75 29 134 31 38 1 55 -4 73 -21z m-359 -55 c-5 -27
-104 -71 -182 -82 -42 -6 -81 -18 -98 -31 -27 -20 -27 -20 -38 -1 -13 25 2 66
28 80 10 5 72 15 137 20 65 6 123 15 129 21 16 16 28 12 24 -7z m154 6 c11 -6
71 -15 132 -21 63 -5 120 -15 133 -23 28 -19 37 -49 23 -76 l-12 -21 -22 21
c-15 14 -45 24 -95 31 -83 12 -167 44 -181 71 -17 32 -12 36 22 18z"/>
<path d="M1251 1409 c-181 -55 -284 -338 -201 -554 l11 -30 40 75 c21 41 37
82 34 91 -4 10 5 29 20 45 15 16 41 61 60 100 18 40 42 77 54 84 20 10 20 13
6 33 -19 27 -19 42 -1 59 8 8 16 23 18 34 5 26 33 24 33 -3 0 -11 3 -25 8 -29
10 -11 9 -62 -3 -69 -17 -11 -11 -20 20 -32 35 -13 48 -39 31 -62 -6 -9 -25
-43 -41 -76 -55 -111 -50 -237 12 -299 l30 -30 -22 -18 c-25 -21 -41 -22 -91
-8 -56 16 -85 55 -104 139 l-17 73 -35 -61 c-43 -77 -40 -96 28 -162 148 -144
345 -76 429 148 74 197 -3 453 -161 534 -48 24 -113 32 -158 18z m234 -293
c44 -44 46 -169 2 -255 -64 -129 -153 -91 -151 64 1 81 32 164 72 195 32 26
48 25 77 -4z"/>
<path d="M1222 1070 c-25 -45 -25 -46 23 -26 37 16 48 49 19 60 -9 3 -16 6
-17 6 -1 0 -12 -18 -25 -40z"/>
</g>
</svg>
